<svg viewBox="0 0 722 74.302" xmlns="http://www.w3.org/2000/svg"><g id="svgGroup" stroke-linecap="round" fill-rule="evenodd" font-size="9pt" stroke="#000" stroke-width="0" fill="#fff" style="stroke:#000;stroke-width:0;fill:#fff"><path d="M 562.6 73 L 547.1 73 L 530.9 21 L 546.7 21 L 553.4 50.5 Q 553.8 52.4 554.25 54.45 Q 554.7 56.5 555 58.4 Q 555.6 54.4 556.7 50.4 L 564.3 21 L 579.8 21 L 587.9 50.4 Q 589 54.4 589.6 58.4 A 65.507 65.507 0 0 1 590.134 55.466 A 74.616 74.616 0 0 1 590.35 54.45 Q 590.8 52.4 591.2 50.5 L 598.4 21 L 613.1 21 L 596.9 73 L 582.3 73 L 573.8 43.4 Q 572.6 39.5 572 35.6 Q 571.7 37.5 571.3 39.5 Q 570.9 41.5 570.4 43.4 L 562.6 73 Z M 376.4 73 L 362.9 73 L 362.9 0 L 376.4 0 L 376.4 28.2 A 14.426 14.426 0 0 1 386.882 20.309 A 25.058 25.058 0 0 1 392.1 19.8 Q 397.7 19.8 402.2 22.4 Q 406.7 25 409.3 29.8 Q 411.9 34.6 411.9 41.2 L 411.9 73 L 398.4 73 L 398.4 44.5 A 23.583 23.583 0 0 0 398.155 40.972 Q 397.528 36.842 395.3 34.65 A 10.467 10.467 0 0 0 389.297 31.746 A 14.552 14.552 0 0 0 387.2 31.6 Q 382.9 31.6 379.65 34.65 A 9.146 9.146 0 0 0 377.375 38.175 Q 376.4 40.775 376.4 44.5 L 376.4 73 Z M 357.3 12.7 L 347.4 21.3 A 20.73 20.73 0 0 0 332.303 14.707 A 26.357 26.357 0 0 0 331.7 14.7 A 23.619 23.619 0 0 0 325.529 15.475 A 19.266 19.266 0 0 0 320.05 17.9 Q 315.1 21.1 312.4 26.4 A 25.073 25.073 0 0 0 309.726 36.86 A 29.605 29.605 0 0 0 309.7 38.1 Q 309.7 44.5 312.4 49.75 Q 315.1 55 320.1 58.15 A 20.273 20.273 0 0 0 327.873 60.992 A 26.743 26.743 0 0 0 332 61.3 A 26.109 26.109 0 0 0 336.518 60.926 A 19.706 19.706 0 0 0 341 59.6 Q 344.9 57.9 348 54.5 L 358.2 63.2 A 27.976 27.976 0 0 1 352.165 68.555 A 36.445 36.445 0 0 1 347.55 71.15 A 31.421 31.421 0 0 1 339.765 73.608 Q 336.249 74.256 332.241 74.297 A 53.086 53.086 0 0 1 331.7 74.3 A 38.118 38.118 0 0 1 321.082 72.854 A 34.556 34.556 0 0 1 317.25 71.5 Q 310.6 68.7 305.65 63.7 Q 300.7 58.7 297.95 52.15 Q 295.2 45.6 295.2 38.1 A 37.581 37.581 0 0 1 297.647 24.517 A 36.16 36.16 0 0 1 297.85 24 Q 300.5 17.4 305.35 12.4 Q 310.2 7.4 316.9 4.55 A 35.992 35.992 0 0 1 327.98 1.857 A 43.432 43.432 0 0 1 331.7 1.7 A 45.854 45.854 0 0 1 338.52 2.181 Q 342.202 2.735 345.305 3.929 A 26.745 26.745 0 0 1 346.45 4.4 A 29.029 29.029 0 0 1 355.796 11.021 A 34.53 34.53 0 0 1 357.3 12.7 Z M 686.5 73 L 673 73 L 673 21 L 686.3 21 L 686.3 28.6 A 14.332 14.332 0 0 1 696.608 20.389 A 24.734 24.734 0 0 1 702.2 19.8 Q 707.8 19.8 712.3 22.4 Q 716.8 25 719.4 29.8 Q 722 34.6 722 41.2 L 722 73 L 708.5 73 L 708.5 44.5 A 23.583 23.583 0 0 0 708.255 40.972 Q 707.628 36.842 705.4 34.65 A 10.467 10.467 0 0 0 699.397 31.746 A 14.552 14.552 0 0 0 697.3 31.6 Q 693 31.6 689.75 34.65 A 9.146 9.146 0 0 0 687.475 38.175 Q 686.5 40.775 686.5 44.5 L 686.5 73 Z M 191.3 52.8 L 191.3 21 L 204.8 21 L 204.8 49.5 Q 204.8 56.2 207.5 59.3 A 8.765 8.765 0 0 0 212.434 62.127 A 13.26 13.26 0 0 0 215.2 62.4 Q 219.5 62.4 222.75 59.3 A 9.415 9.415 0 0 0 225.069 55.64 Q 225.622 54.123 225.846 52.243 A 23.17 23.17 0 0 0 226 49.5 L 226 21 L 239.5 21 L 239.5 73 L 226.4 73 L 226.4 65.2 A 16.037 16.037 0 0 1 224.234 68.924 A 12.938 12.938 0 0 1 220.85 71.95 Q 217.97 73.725 213.564 74.1 A 29.12 29.12 0 0 1 211.1 74.2 Q 205.5 74.2 201 71.6 A 18.378 18.378 0 0 1 194.064 64.451 A 21.921 21.921 0 0 1 193.9 64.15 Q 191.3 59.3 191.3 52.8 Z M 84.4 64.5 L 84.4 73 L 71.3 73 L 71.3 0 L 84.8 0 L 84.8 29 Q 86.9 24.9 90.7 22.4 A 13.537 13.537 0 0 1 94.422 20.736 Q 96.147 20.239 98.213 20.038 A 30.806 30.806 0 0 1 101.2 19.9 A 23.749 23.749 0 0 1 110.647 21.782 A 23.073 23.073 0 0 1 111.25 22.05 Q 115.9 24.2 119.4 27.95 Q 122.9 31.7 124.9 36.65 Q 126.9 41.6 126.9 47.2 A 28.166 28.166 0 0 1 125.118 57.284 A 26.535 26.535 0 0 1 123.45 60.85 Q 120 67 114.2 70.65 Q 108.4 74.3 101.2 74.3 A 29.348 29.348 0 0 1 97.133 74.036 Q 95.065 73.746 93.369 73.137 A 12.71 12.71 0 0 1 90.35 71.6 Q 86.5 68.9 84.4 64.5 Z M 15.2 73 L 0 73 L 28.6 3 L 40.7 3 L 69.2 73 L 54 73 L 49.2 59.7 L 20 59.7 L 15.2 73 Z M 531.9 51.9 L 493 51.9 A 14.64 14.64 0 0 0 495.099 56.763 A 13.507 13.507 0 0 0 497.45 59.4 A 11.76 11.76 0 0 0 503.587 62.138 A 15.976 15.976 0 0 0 505.9 62.3 A 16.293 16.293 0 0 0 509.893 61.831 A 12.99 12.99 0 0 0 513.55 60.3 A 15.619 15.619 0 0 0 517.046 57.409 A 13.894 13.894 0 0 0 518.6 55.3 L 529.1 63.2 A 20.416 20.416 0 0 1 524.014 68.622 A 27.558 27.558 0 0 1 519.8 71.2 Q 513.6 74.3 505.9 74.3 A 29.324 29.324 0 0 1 497.964 73.263 A 24.629 24.629 0 0 1 491.8 70.6 Q 485.7 66.9 482.35 60.75 A 27.783 27.783 0 0 1 479.02 48.264 A 32.896 32.896 0 0 1 479 47.1 Q 479 39.6 482.5 33.35 Q 486 27.1 492.05 23.4 A 25.311 25.311 0 0 1 503.388 19.8 A 31.188 31.188 0 0 1 505.9 19.7 A 27.913 27.913 0 0 1 513.665 20.744 A 23.72 23.72 0 0 1 519.65 23.4 Q 525.6 27.1 528.95 33.35 A 28.54 28.54 0 0 1 532.297 46.632 A 33.322 33.322 0 0 1 532.3 47.1 A 26.803 26.803 0 0 1 532.244 48.806 A 30.696 30.696 0 0 1 532.2 49.4 A 35.093 35.093 0 0 1 531.994 51.256 A 40.045 40.045 0 0 1 531.9 51.9 Z M 459.6 29.2 L 459.6 21 L 473 21 L 473 73 L 459.9 73 L 459.9 64.5 Q 457.8 68.9 453.95 71.6 A 13.231 13.231 0 0 1 450.141 73.398 Q 448.457 73.905 446.439 74.127 A 30.565 30.565 0 0 1 443.1 74.3 Q 436 74.3 430.15 70.65 Q 424.3 67 420.85 60.85 A 27.209 27.209 0 0 1 417.413 48.132 A 32.073 32.073 0 0 1 417.4 47.2 Q 417.4 41.6 419.4 36.65 Q 421.4 31.7 424.9 27.95 Q 428.4 24.2 433.05 22.05 A 23.634 23.634 0 0 1 443.016 19.9 A 27.087 27.087 0 0 1 443.1 19.9 Q 447.636 19.9 450.836 21.034 A 12.766 12.766 0 0 1 453.7 22.45 Q 457.5 25 459.6 29.2 Z M 274.6 73 L 267.2 73 A 24.998 24.998 0 0 1 262.637 72.61 Q 258.187 71.783 255.4 69.2 A 11.381 11.381 0 0 1 252.526 64.791 Q 251.3 61.548 251.3 56.9 L 251.3 32.5 L 244 32.5 L 244 21 L 251.3 21 L 251.3 10.5 L 264.8 9.1 L 264.8 21 L 275.8 21 L 275.8 32.5 L 264.8 32.5 L 264.8 56.2 Q 264.8 61 269 61 L 274.6 61 L 274.6 73 Z M 158.1 74.3 Q 150.1 74.3 143.8 70.6 Q 137.5 66.9 133.95 60.75 A 26.714 26.714 0 0 1 130.403 47.567 A 31.426 31.426 0 0 1 130.4 47.1 Q 130.4 39.6 133.95 33.4 Q 137.5 27.2 143.8 23.5 A 27.028 27.028 0 0 1 155.642 19.89 A 32.976 32.976 0 0 1 158.1 19.8 A 30.254 30.254 0 0 1 166.184 20.844 A 25.64 25.64 0 0 1 172.45 23.5 Q 178.7 27.2 182.25 33.4 Q 185.8 39.6 185.8 47.1 A 27.313 27.313 0 0 1 183.719 57.793 A 26.278 26.278 0 0 1 182.25 60.75 Q 178.7 66.9 172.45 70.6 A 26.567 26.567 0 0 1 161.555 74.123 A 33.021 33.021 0 0 1 158.1 74.3 Z M 639.3 74.3 Q 631.3 74.3 625 70.6 Q 618.7 66.9 615.15 60.75 A 26.714 26.714 0 0 1 611.603 47.567 A 31.426 31.426 0 0 1 611.6 47.1 Q 611.6 39.6 615.15 33.4 Q 618.7 27.2 625 23.5 A 27.028 27.028 0 0 1 636.842 19.89 A 32.976 32.976 0 0 1 639.3 19.8 A 30.254 30.254 0 0 1 647.384 20.844 A 25.64 25.64 0 0 1 653.65 23.5 Q 659.9 27.2 663.45 33.4 Q 667 39.6 667 47.1 A 27.313 27.313 0 0 1 664.919 57.793 A 26.278 26.278 0 0 1 663.45 60.75 Q 659.9 66.9 653.65 70.6 A 26.567 26.567 0 0 1 642.755 74.123 A 33.021 33.021 0 0 1 639.3 74.3 Z M 445.3 62.1 A 16.552 16.552 0 0 0 449.183 61.664 A 12.816 12.816 0 0 0 453.05 60.05 Q 456.3 58 458.1 54.6 Q 459.9 51.2 459.9 47.2 A 16.19 16.19 0 0 0 458.929 41.556 A 15.193 15.193 0 0 0 458.1 39.7 Q 456.3 36.3 453.05 34.2 A 13.006 13.006 0 0 0 447.894 32.29 A 17.124 17.124 0 0 0 445.3 32.1 A 15.258 15.258 0 0 0 441.086 32.662 A 12.839 12.839 0 0 0 437.75 34.15 Q 434.5 36.2 432.7 39.6 Q 430.9 43 430.9 47.1 Q 430.9 51 432.7 54.45 Q 434.5 57.9 437.75 60 A 13.148 13.148 0 0 0 443.724 62.026 A 16.489 16.489 0 0 0 445.3 62.1 Z M 99 62.1 A 14.889 14.889 0 0 0 103.271 61.508 A 12.685 12.685 0 0 0 106.55 60 Q 109.8 57.9 111.6 54.45 Q 113.4 51 113.4 47.1 A 16.19 16.19 0 0 0 112.429 41.456 A 15.193 15.193 0 0 0 111.6 39.6 Q 109.8 36.2 106.55 34.15 A 13.295 13.295 0 0 0 100.831 32.198 A 16.714 16.714 0 0 0 99 32.1 A 15.572 15.572 0 0 0 94.785 32.65 A 12.966 12.966 0 0 0 91.3 34.2 Q 88 36.3 86.2 39.7 Q 84.4 43.1 84.4 47.2 Q 84.4 51.2 86.2 54.6 Q 88 58 91.3 60.05 Q 94.6 62.1 99 62.1 Z M 158.1 62 Q 162.4 62 165.6 59.95 Q 168.8 57.9 170.55 54.5 Q 172.3 51.1 172.3 47.1 A 16.677 16.677 0 0 0 171.435 41.68 A 15.409 15.409 0 0 0 170.55 39.6 Q 168.8 36.2 165.6 34.15 Q 162.4 32.1 158.1 32.1 Q 153.8 32.1 150.6 34.15 Q 147.4 36.2 145.65 39.6 A 15.953 15.953 0 0 0 143.915 46.337 A 18.767 18.767 0 0 0 143.9 47.1 A 15.931 15.931 0 0 0 145.65 54.5 Q 147.4 57.9 150.6 59.95 A 12.935 12.935 0 0 0 156.019 61.872 A 16.469 16.469 0 0 0 158.1 62 Z M 639.3 62 Q 643.6 62 646.8 59.95 Q 650 57.9 651.75 54.5 Q 653.5 51.1 653.5 47.1 A 16.677 16.677 0 0 0 652.635 41.68 A 15.409 15.409 0 0 0 651.75 39.6 Q 650 36.2 646.8 34.15 Q 643.6 32.1 639.3 32.1 Q 635 32.1 631.8 34.15 Q 628.6 36.2 626.85 39.6 A 15.953 15.953 0 0 0 625.115 46.337 A 18.767 18.767 0 0 0 625.1 47.1 A 15.931 15.931 0 0 0 626.85 54.5 Q 628.6 57.9 631.8 59.95 A 12.935 12.935 0 0 0 637.219 61.872 A 16.469 16.469 0 0 0 639.3 62 Z M 32.1 28.5 L 24.6 47.6 L 44.6 47.6 L 37.1 28.5 Q 35.6 24.5 34.6 20.5 A 56.173 56.173 0 0 1 32.989 26.129 A 48.37 48.37 0 0 1 32.1 28.5 Z M 493 41.8 L 518.7 41.8 Q 517.6 37.5 514.15 34.4 A 12.023 12.023 0 0 0 506.472 31.319 A 15.566 15.566 0 0 0 505.7 31.3 Q 500.9 31.3 497.5 34.2 A 13.621 13.621 0 0 0 493.226 40.935 A 16.985 16.985 0 0 0 493 41.8 Z" vector-effect="non-scaling-stroke"/></g></svg>