<svg viewBox="0 0 512.716 76.231" xmlns="http://www.w3.org/2000/svg"><g id="svgGroup" stroke-linecap="round" fill-rule="evenodd" font-size="9pt" stroke="#000" stroke-width="0mm" fill="#ffffff" style="stroke:#000;stroke-width:0mm;fill:#ffffff"><path d="M 292.741 74.866 L 279.511 74.866 L 254.941 1.366 L 271.741 1.366 L 283.501 42.946 Q 284.446 46.096 285.233 49.298 Q 286.021 52.501 286.441 55.546 A 73.133 73.133 0 0 1 287.248 50.86 A 82.734 82.734 0 0 1 287.596 49.246 Q 288.331 45.991 289.486 42.946 L 304.081 1.366 L 317.311 1.366 L 331.906 42.946 A 68.97 68.97 0 0 1 334.603 52.435 A 61.163 61.163 0 0 1 335.161 55.546 A 86.043 86.043 0 0 1 336.097 50.096 A 94.631 94.631 0 0 1 336.263 49.298 Q 336.946 46.096 337.891 42.946 L 349.651 1.366 L 366.451 1.366 L 341.881 74.866 L 328.651 74.866 L 313.741 33.391 Q 311.641 27.616 310.696 21.316 Q 310.171 24.361 309.436 27.406 Q 308.701 30.451 307.651 33.391 L 292.741 74.866 Z M 461.686 74.866 L 448.036 74.866 L 448.036 1.366 L 459.166 1.366 L 494.971 43.891 Q 496.231 45.361 497.438 46.883 Q 498.646 48.406 499.801 49.981 Q 499.486 47.671 499.381 44.468 Q 499.276 41.266 499.276 38.011 L 499.276 1.366 L 512.716 1.366 L 512.716 74.866 L 503.161 74.866 L 465.991 30.661 Q 464.731 29.191 463.523 27.668 Q 462.316 26.146 461.161 24.571 Q 461.476 26.881 461.581 30.083 Q 461.686 33.286 461.686 36.541 L 461.686 74.866 Z M 86.836 74.866 L 72.136 74.866 L 72.136 1.366 L 86.836 1.366 L 86.836 30.976 L 117.286 30.976 L 117.286 1.366 L 131.986 1.366 L 131.986 74.866 L 117.286 74.866 L 117.286 44.206 L 86.836 44.206 L 86.836 74.866 Z M 254.416 74.866 L 211.156 74.866 L 211.156 1.366 L 254.206 1.366 L 254.206 14.596 L 225.856 14.596 L 225.856 31.081 L 253.681 31.081 L 253.681 43.891 L 225.856 43.891 L 225.856 61.636 L 254.416 61.636 L 254.416 74.866 Z M 65.206 11.551 L 54.811 20.581 A 21.767 21.767 0 0 0 38.959 13.658 A 27.675 27.675 0 0 0 38.326 13.651 A 24.8 24.8 0 0 0 31.846 14.465 A 20.229 20.229 0 0 0 26.093 17.011 Q 20.896 20.371 18.061 25.936 A 26.327 26.327 0 0 0 15.253 36.919 A 31.085 31.085 0 0 0 15.226 38.221 Q 15.226 44.941 18.061 50.453 Q 20.896 55.966 26.146 59.273 A 21.287 21.287 0 0 0 34.308 62.258 A 28.08 28.08 0 0 0 38.641 62.581 A 27.414 27.414 0 0 0 43.384 62.188 A 20.692 20.692 0 0 0 48.091 60.796 Q 52.186 59.011 55.441 55.441 L 66.151 64.576 A 29.375 29.375 0 0 1 59.814 70.199 A 38.267 38.267 0 0 1 54.968 72.923 Q 48.192 76.133 38.894 76.228 A 55.735 55.735 0 0 1 38.326 76.231 A 40.024 40.024 0 0 1 27.176 74.712 A 36.284 36.284 0 0 1 23.153 73.291 Q 16.171 70.351 10.973 65.101 Q 5.776 59.851 2.888 52.973 Q 0.001 46.096 0.001 38.221 A 39.46 39.46 0 0 1 2.57 23.958 A 37.966 37.966 0 0 1 2.783 23.416 Q 5.566 16.486 10.658 11.236 Q 15.751 5.986 22.786 2.993 Q 29.821 0.001 38.326 0.001 A 48.147 48.147 0 0 1 45.487 0.505 Q 50.08 1.197 53.813 2.836 A 30.48 30.48 0 0 1 63.626 9.787 A 36.256 36.256 0 0 1 65.206 11.551 Z M 151.201 74.866 L 135.241 74.866 L 165.271 1.366 L 177.976 1.366 L 207.901 74.866 L 191.941 74.866 L 186.901 60.901 L 156.241 60.901 L 151.201 74.866 Z M 390.896 74.712 A 40.024 40.024 0 0 0 402.046 76.231 Q 410.236 76.231 417.166 73.291 Q 424.096 70.351 429.241 65.101 Q 434.386 59.851 437.273 52.973 Q 440.161 46.096 440.161 38.221 Q 440.161 30.346 437.273 23.416 Q 434.386 16.486 429.241 11.236 Q 424.096 5.986 417.166 2.993 Q 410.236 0.001 402.046 0.001 A 43.641 43.641 0 0 0 400.017 0.047 A 37.509 37.509 0 0 0 386.873 2.993 Q 379.891 5.986 374.693 11.236 Q 369.496 16.486 366.608 23.416 Q 363.721 30.346 363.721 38.221 Q 363.721 46.096 366.608 52.973 Q 369.496 59.851 374.693 65.101 Q 379.891 70.351 386.873 73.291 A 36.284 36.284 0 0 0 390.896 74.712 Z M 402.046 62.581 Q 409.186 62.581 414.278 59.273 Q 419.371 55.966 422.153 50.401 A 26.656 26.656 0 0 0 424.925 39.043 A 30.996 30.996 0 0 0 424.936 38.221 A 28.168 28.168 0 0 0 423.65 29.619 A 25.613 25.613 0 0 0 422.153 25.936 Q 419.371 20.371 414.278 17.011 Q 409.186 13.651 402.046 13.651 A 25.503 25.503 0 0 0 395.779 14.389 A 20.23 20.23 0 0 0 389.708 17.011 Q 384.511 20.371 381.728 25.936 A 26.63 26.63 0 0 0 378.989 36.559 A 31.461 31.461 0 0 0 378.946 38.221 A 27.4 27.4 0 0 0 380.61 47.825 A 25.87 25.87 0 0 0 381.728 50.401 Q 384.511 55.966 389.708 59.273 A 20.994 20.994 0 0 0 397.978 62.289 A 27.479 27.479 0 0 0 402.046 62.581 Z M 168.946 28.141 L 161.071 48.196 L 182.071 48.196 L 174.196 28.141 Q 172.621 23.941 171.571 19.741 A 58.982 58.982 0 0 1 169.879 25.651 A 50.789 50.789 0 0 1 168.946 28.141 Z"/></g></svg>