<svg viewBox="0 0 659.716 76.231" xmlns="http://www.w3.org/2000/svg"><g id="svgGroup" stroke-linecap="round" fill-rule="evenodd" font-size="9pt" stroke="#000" stroke-width="0mm" fill="#ffffff" style="stroke:#000;stroke-width:0mm;fill:#ffffff"><path d="M 65.311 11.551 L 54.811 20.581 Q 51.871 17.326 47.671 15.488 A 22.027 22.027 0 0 0 40.916 13.773 A 26.915 26.915 0 0 0 38.326 13.651 A 24.8 24.8 0 0 0 31.846 14.465 A 20.229 20.229 0 0 0 26.093 17.011 Q 20.896 20.371 18.061 25.936 A 26.327 26.327 0 0 0 15.253 36.919 A 31.085 31.085 0 0 0 15.226 38.221 A 27.655 27.655 0 0 0 16.566 46.915 A 25.343 25.343 0 0 0 18.061 50.506 Q 20.896 56.071 26.093 59.431 Q 31.291 62.791 38.326 62.791 Q 45.645 62.791 50.594 59.865 A 17.385 17.385 0 0 0 52.396 58.643 Q 57.462 54.719 58.863 46.802 A 31.113 31.113 0 0 0 59.011 45.886 L 34.861 46.096 L 34.861 32.866 L 73.186 32.866 A 51.932 51.932 0 0 1 73.336 34.222 Q 73.455 35.432 73.553 36.908 Q 73.711 39.271 73.711 41.056 A 41.652 41.652 0 0 1 72.511 51.24 A 34.489 34.489 0 0 1 69.458 59.168 Q 65.206 67.096 57.278 71.663 A 33.458 33.458 0 0 1 46.466 75.534 A 45.492 45.492 0 0 1 38.326 76.231 A 40.024 40.024 0 0 1 27.177 74.712 A 36.284 36.284 0 0 1 23.153 73.291 Q 16.171 70.351 10.973 65.101 Q 5.776 59.851 2.888 52.973 Q 0.001 46.096 0.001 38.221 Q 0.001 30.346 2.888 23.416 Q 5.776 16.486 10.973 11.236 Q 16.171 5.986 23.153 2.993 A 37.509 37.509 0 0 1 36.297 0.047 A 43.641 43.641 0 0 1 38.326 0.001 Q 46.457 0.001 52.482 2.266 A 27.837 27.837 0 0 1 54.233 2.993 Q 60.796 5.986 65.311 11.551 Z M 248.536 74.866 L 234.886 74.866 L 234.886 1.366 L 246.016 1.366 L 281.821 43.891 Q 283.081 45.361 284.288 46.883 Q 285.496 48.406 286.651 49.981 Q 286.336 47.671 286.231 44.468 Q 286.126 41.266 286.126 38.011 L 286.126 1.366 L 299.566 1.366 L 299.566 74.866 L 290.011 74.866 L 252.841 30.661 Q 251.581 29.191 250.373 27.668 Q 249.166 26.146 248.011 24.571 Q 248.326 26.881 248.431 30.083 Q 248.536 33.286 248.536 36.541 L 248.536 74.866 Z M 614.566 74.866 L 599.866 74.866 L 599.866 1.366 L 614.566 1.366 L 614.566 30.976 L 645.016 30.976 L 645.016 1.366 L 659.716 1.366 L 659.716 74.866 L 645.016 74.866 L 645.016 44.206 L 614.566 44.206 L 614.566 74.866 Z M 461.476 47.671 L 461.476 1.366 L 476.176 1.366 L 476.176 46.096 Q 476.176 52.068 478.378 56.086 A 13.929 13.929 0 0 0 479.903 58.328 A 11.833 11.833 0 0 0 485.964 62.137 Q 488.297 62.791 491.191 62.791 Q 496.842 62.791 500.352 60.297 A 11.254 11.254 0 0 0 502.478 58.328 A 15.077 15.077 0 0 0 505.38 52.678 Q 505.999 50.484 506.154 47.878 A 30.06 30.06 0 0 0 506.206 46.096 L 506.206 1.366 L 520.906 1.366 L 520.906 47.671 A 32.633 32.633 0 0 1 519.884 55.99 A 27.058 27.058 0 0 1 517.231 62.528 Q 513.556 68.986 506.888 72.608 A 29.355 29.355 0 0 1 497.631 75.721 A 39.124 39.124 0 0 1 491.191 76.231 A 37.235 37.235 0 0 1 483.062 75.381 A 29.135 29.135 0 0 1 475.546 72.608 Q 468.826 68.986 465.151 62.528 A 28.096 28.096 0 0 1 461.706 51.749 A 35.356 35.356 0 0 1 461.476 47.671 Z M 124.846 74.866 L 81.586 74.866 L 81.586 1.366 L 124.636 1.366 L 124.636 14.596 L 96.286 14.596 L 96.286 31.081 L 124.111 31.081 L 124.111 43.891 L 96.286 43.891 L 96.286 61.636 L 124.846 61.636 L 124.846 74.866 Z M 592.936 11.551 L 582.541 20.581 A 21.767 21.767 0 0 0 566.689 13.658 A 27.675 27.675 0 0 0 566.056 13.651 A 24.8 24.8 0 0 0 559.576 14.465 A 20.229 20.229 0 0 0 553.823 17.011 Q 548.626 20.371 545.791 25.936 A 26.327 26.327 0 0 0 542.983 36.919 A 31.085 31.085 0 0 0 542.956 38.221 Q 542.956 44.941 545.791 50.453 Q 548.626 55.966 553.876 59.273 A 21.287 21.287 0 0 0 562.038 62.258 A 28.08 28.08 0 0 0 566.371 62.581 A 27.414 27.414 0 0 0 571.114 62.188 A 20.692 20.692 0 0 0 575.821 60.796 Q 579.916 59.011 583.171 55.441 L 593.881 64.576 A 29.375 29.375 0 0 1 587.544 70.199 A 38.267 38.267 0 0 1 582.698 72.923 Q 575.922 76.133 566.624 76.228 A 55.735 55.735 0 0 1 566.056 76.231 A 40.024 40.024 0 0 1 554.907 74.712 A 36.284 36.284 0 0 1 550.883 73.291 Q 543.901 70.351 538.703 65.101 Q 533.506 59.851 530.618 52.973 Q 527.731 46.096 527.731 38.221 A 39.46 39.46 0 0 1 530.3 23.958 A 37.966 37.966 0 0 1 530.513 23.416 Q 533.296 16.486 538.388 11.236 Q 543.481 5.986 550.516 2.993 Q 557.551 0.001 566.056 0.001 A 48.147 48.147 0 0 1 573.217 0.505 Q 577.81 1.197 581.543 2.836 A 30.48 30.48 0 0 1 591.356 9.787 A 36.256 36.256 0 0 1 592.936 11.551 Z M 165.166 74.866 L 150.466 74.866 L 150.466 14.596 L 129.466 14.596 L 129.466 1.366 L 186.166 1.366 L 186.166 14.596 L 165.166 14.596 L 165.166 74.866 Z M 359.311 74.866 L 344.611 74.866 L 344.611 14.596 L 323.611 14.596 L 323.611 1.366 L 380.311 1.366 L 380.311 14.596 L 359.311 14.596 L 359.311 74.866 Z M 405.387 74.712 A 40.024 40.024 0 0 0 416.536 76.231 Q 424.726 76.231 431.656 73.291 Q 438.586 70.351 443.731 65.101 Q 448.876 59.851 451.763 52.973 Q 454.651 46.096 454.651 38.221 Q 454.651 30.346 451.763 23.416 Q 448.876 16.486 443.731 11.236 Q 438.586 5.986 431.656 2.993 Q 424.726 0.001 416.536 0.001 A 43.641 43.641 0 0 0 414.507 0.047 A 37.509 37.509 0 0 0 401.363 2.993 Q 394.381 5.986 389.183 11.236 Q 383.986 16.486 381.098 23.416 Q 378.211 30.346 378.211 38.221 Q 378.211 46.096 381.098 52.973 Q 383.986 59.851 389.183 65.101 Q 394.381 70.351 401.363 73.291 A 36.284 36.284 0 0 0 405.387 74.712 Z M 224.386 74.866 L 209.686 74.866 L 209.686 1.366 L 224.386 1.366 L 224.386 74.866 Z M 416.536 62.581 Q 423.676 62.581 428.768 59.273 Q 433.861 55.966 436.643 50.401 A 26.656 26.656 0 0 0 439.415 39.043 A 30.996 30.996 0 0 0 439.426 38.221 A 28.168 28.168 0 0 0 438.14 29.619 A 25.613 25.613 0 0 0 436.643 25.936 Q 433.861 20.371 428.768 17.011 Q 423.676 13.651 416.536 13.651 A 25.503 25.503 0 0 0 410.269 14.389 A 20.23 20.23 0 0 0 404.198 17.011 Q 399.001 20.371 396.218 25.936 A 26.63 26.63 0 0 0 393.479 36.559 A 31.461 31.461 0 0 0 393.436 38.221 A 27.4 27.4 0 0 0 395.1 47.825 A 25.87 25.87 0 0 0 396.218 50.401 Q 399.001 55.966 404.198 59.273 A 20.994 20.994 0 0 0 412.468 62.289 A 27.479 27.479 0 0 0 416.536 62.581 Z"/></g></svg>