<svg viewBox="0 0 385.246 76.231" xmlns="http://www.w3.org/2000/svg"><g id="svgGroup" stroke-linecap="round" fill-rule="evenodd" font-size="9pt" stroke="#000" stroke-width="0mm" fill="#ffffff" style="stroke:#000;stroke-width:0mm;fill:#ffffff"><path d="M 101.955 74.865 L 88.725 74.865 L 64.155 1.365 L 80.955 1.365 L 92.715 42.945 Q 93.66 46.095 94.447 49.298 Q 95.235 52.5 95.655 55.545 A 73.133 73.133 0 0 1 96.462 50.86 A 82.734 82.734 0 0 1 96.81 49.245 Q 97.545 45.99 98.7 42.945 L 113.295 1.365 L 126.525 1.365 L 141.12 42.945 A 68.97 68.97 0 0 1 143.817 52.435 A 61.163 61.163 0 0 1 144.375 55.545 A 86.043 86.043 0 0 1 145.311 50.096 A 94.631 94.631 0 0 1 145.478 49.298 Q 146.16 46.095 147.105 42.945 L 158.865 1.365 L 175.665 1.365 L 151.095 74.865 L 137.865 74.865 L 122.955 33.39 Q 120.855 27.615 119.91 21.315 Q 119.385 24.36 118.65 27.405 Q 117.915 30.45 116.865 33.39 L 101.955 74.865 Z M 376.845 11.55 L 366.345 20.58 Q 363.405 17.325 359.205 15.488 A 22.027 22.027 0 0 0 352.45 13.773 A 26.915 26.915 0 0 0 349.86 13.65 A 24.8 24.8 0 0 0 343.38 14.464 A 20.229 20.229 0 0 0 337.627 17.01 Q 332.43 20.37 329.595 25.935 A 26.327 26.327 0 0 0 326.787 36.919 A 31.085 31.085 0 0 0 326.76 38.22 A 27.655 27.655 0 0 0 328.1 46.915 A 25.343 25.343 0 0 0 329.595 50.505 Q 332.43 56.07 337.627 59.43 Q 342.825 62.79 349.86 62.79 Q 357.179 62.79 362.129 59.865 A 17.385 17.385 0 0 0 363.93 58.643 Q 368.996 54.719 370.397 46.802 A 31.113 31.113 0 0 0 370.545 45.885 L 346.395 46.095 L 346.395 32.865 L 384.72 32.865 A 51.932 51.932 0 0 1 384.87 34.221 Q 384.989 35.431 385.088 36.908 Q 385.245 39.27 385.245 41.055 A 41.652 41.652 0 0 1 384.045 51.24 A 34.489 34.489 0 0 1 380.992 59.168 Q 376.74 67.095 368.812 71.663 A 33.458 33.458 0 0 1 358.001 75.533 A 45.492 45.492 0 0 1 349.86 76.23 A 40.024 40.024 0 0 1 338.711 74.712 A 36.284 36.284 0 0 1 334.687 73.29 Q 327.705 70.35 322.508 65.1 Q 317.31 59.85 314.422 52.973 Q 311.535 46.095 311.535 38.22 Q 311.535 30.345 314.422 23.415 Q 317.31 16.485 322.508 11.235 Q 327.705 5.985 334.687 2.993 A 37.509 37.509 0 0 1 347.831 0.047 A 43.641 43.641 0 0 1 349.86 0 Q 357.991 0 364.016 2.266 A 27.837 27.837 0 0 1 365.767 2.993 Q 372.33 5.985 376.845 11.55 Z M 252.63 74.865 L 238.98 74.865 L 238.98 1.365 L 250.11 1.365 L 285.915 43.89 Q 287.175 45.36 288.382 46.883 Q 289.59 48.405 290.745 49.98 Q 290.43 47.67 290.325 44.468 Q 290.22 41.265 290.22 38.01 L 290.22 1.365 L 303.66 1.365 L 303.66 74.865 L 294.105 74.865 L 256.935 30.66 Q 255.675 29.19 254.467 27.668 Q 253.26 26.145 252.105 24.57 Q 252.42 26.88 252.525 30.083 Q 252.63 33.285 252.63 36.54 L 252.63 74.865 Z M 14.7 74.865 L 0 74.865 L 0 1.365 L 14.7 1.365 L 14.7 30.975 L 45.15 30.975 L 45.15 1.365 L 59.85 1.365 L 59.85 74.865 L 45.15 74.865 L 45.15 44.205 L 14.7 44.205 L 14.7 74.865 Z M 179.025 74.865 L 163.065 74.865 L 193.095 1.365 L 205.8 1.365 L 235.725 74.865 L 219.765 74.865 L 214.725 60.9 L 184.065 60.9 L 179.025 74.865 Z M 196.77 28.14 L 188.895 48.195 L 209.895 48.195 L 202.02 28.14 Q 200.445 23.94 199.395 19.74 A 58.982 58.982 0 0 1 197.703 25.651 A 50.789 50.789 0 0 1 196.77 28.14 Z"/></g></svg>