<svg viewBox="0 0 597.301 92.201" xmlns="http://www.w3.org/2000/svg"><g id="svgGroup" stroke-linecap="round" fill-rule="evenodd" font-size="9pt" stroke="#000" stroke-width="0" fill="#fff" ><path d="M 13.7 72.2 L 0 72.2 L 0 2.2 L 17.4 2.2 L 31.9 33.1 Q 34.4 38.5 35.95 42 A 165.466 165.466 0 0 1 36.681 43.675 Q 37.713 46.075 38.35 47.8 A 85.021 85.021 0 0 1 38.938 49.441 Q 39.219 50.252 39.446 50.971 A 42.987 42.987 0 0 1 39.7 51.8 A 64.837 64.837 0 0 1 40.117 50.441 Q 40.309 49.84 40.529 49.179 A 120.608 120.608 0 0 1 41 47.8 A 49.828 49.828 0 0 1 41.639 46.077 Q 41.986 45.187 42.414 44.168 A 121.669 121.669 0 0 1 43.35 42 Q 44.737 38.87 46.883 34.218 A 1047.466 1047.466 0 0 1 47.4 33.1 L 62 2.2 L 78.8 2.2 L 78.8 72.2 L 65.1 72.2 L 65.1 43.9 A 388.948 388.948 0 0 1 65.114 40.497 Q 65.126 39.161 65.147 37.962 A 197.437 197.437 0 0 1 65.2 35.7 Q 65.3 32.3 65.5 29.45 A 93.648 93.648 0 0 1 66.051 23.975 A 102.131 102.131 0 0 1 66.1 23.6 L 42.8 72.2 L 36 72.2 L 12.7 23.6 A 94.666 94.666 0 0 1 13.274 29.094 A 86.843 86.843 0 0 1 13.3 29.45 Q 13.5 32.3 13.6 35.7 A 204.594 204.594 0 0 1 13.661 38.447 Q 13.7 40.9 13.7 43.9 L 13.7 72.2 Z M 555.5 64.4 L 564.6 56.1 Q 568.769 60.782 573.366 62.039 A 12.959 12.959 0 0 0 576.8 62.5 Q 580.3 62.5 582.15 60.95 A 5.342 5.342 0 0 0 583.411 59.458 A 4.766 4.766 0 0 0 584 57.1 A 5.042 5.042 0 0 0 583.867 55.914 A 3.88 3.88 0 0 0 583.35 54.7 A 3.119 3.119 0 0 0 582.79 54.07 Q 582.043 53.412 580.65 52.8 A 17.31 17.31 0 0 0 579.252 52.266 Q 577.821 51.782 575.796 51.297 A 71.069 71.069 0 0 0 574.5 51 Q 568.019 49.427 564.624 47.167 A 13.676 13.676 0 0 1 564.1 46.8 Q 561.126 44.614 559.912 41.968 A 9.277 9.277 0 0 1 559.6 41.2 Q 558.5 38.1 558.5 34.8 Q 558.5 28 563.65 23.45 Q 568.29 19.351 576.135 18.945 A 34.136 34.136 0 0 1 577.9 18.9 Q 584.2 18.9 588.7 20.8 A 17.198 17.198 0 0 1 592.809 23.307 Q 595.075 25.138 597.2 27.9 L 587.4 35.4 Q 585.839 32.935 583.973 31.618 A 8.872 8.872 0 0 0 583.15 31.1 Q 580.8 29.8 578.2 29.8 A 11.822 11.822 0 0 0 576.234 29.955 Q 575.094 30.148 574.161 30.579 A 6.69 6.69 0 0 0 573.55 30.9 A 3.591 3.591 0 0 0 571.776 33.479 A 5.316 5.316 0 0 0 571.7 34.4 Q 571.7 35.553 572.644 36.667 A 6.172 6.172 0 0 0 572.9 36.95 Q 574.013 38.11 578.051 39.226 A 46.207 46.207 0 0 0 578.7 39.4 Q 586.3 41.3 590.3 43.85 Q 594.3 46.4 595.8 49.6 A 15.996 15.996 0 0 1 597.238 55.145 A 19.243 19.243 0 0 1 597.3 56.7 Q 597.3 61.5 594.65 65.3 A 17.831 17.831 0 0 1 588.825 70.574 A 21.533 21.533 0 0 1 587.45 71.3 Q 582.9 73.5 577.1 73.5 A 30.791 30.791 0 0 1 565.851 71.509 A 27.893 27.893 0 0 1 555.5 64.4 Z M 229.3 51.1 L 190.4 51.1 A 14.64 14.64 0 0 0 192.499 55.964 A 13.507 13.507 0 0 0 194.85 58.6 A 11.76 11.76 0 0 0 200.987 61.339 A 15.976 15.976 0 0 0 203.3 61.5 A 16.293 16.293 0 0 0 207.293 61.031 A 12.99 12.99 0 0 0 210.95 59.5 A 15.619 15.619 0 0 0 214.446 56.61 A 13.894 13.894 0 0 0 216 54.5 L 226.5 62.4 A 20.416 20.416 0 0 1 221.414 67.822 A 27.558 27.558 0 0 1 217.2 70.4 Q 211 73.5 203.3 73.5 A 29.324 29.324 0 0 1 195.364 72.464 A 24.629 24.629 0 0 1 189.2 69.8 Q 183.1 66.1 179.75 59.95 A 27.783 27.783 0 0 1 176.42 47.464 A 32.896 32.896 0 0 1 176.4 46.3 Q 176.4 38.8 179.9 32.55 Q 183.4 26.3 189.45 22.6 A 25.311 25.311 0 0 1 200.788 19 A 31.188 31.188 0 0 1 203.3 18.9 A 27.913 27.913 0 0 1 211.065 19.945 A 23.72 23.72 0 0 1 217.05 22.6 Q 223 26.3 226.35 32.55 A 28.54 28.54 0 0 1 229.697 45.833 A 33.322 33.322 0 0 1 229.7 46.3 A 26.803 26.803 0 0 1 229.644 48.007 A 30.696 30.696 0 0 1 229.6 48.6 A 35.093 35.093 0 0 1 229.394 50.457 A 40.045 40.045 0 0 1 229.3 51.1 Z M 469 51.1 L 430.1 51.1 A 14.64 14.64 0 0 0 432.199 55.964 A 13.507 13.507 0 0 0 434.55 58.6 A 11.76 11.76 0 0 0 440.687 61.339 A 15.976 15.976 0 0 0 443 61.5 A 16.293 16.293 0 0 0 446.993 61.031 A 12.99 12.99 0 0 0 450.65 59.5 A 15.619 15.619 0 0 0 454.146 56.61 A 13.894 13.894 0 0 0 455.7 54.5 L 466.2 62.4 A 20.416 20.416 0 0 1 461.114 67.822 A 27.558 27.558 0 0 1 456.9 70.4 Q 450.7 73.5 443 73.5 A 29.324 29.324 0 0 1 435.064 72.464 A 24.629 24.629 0 0 1 428.9 69.8 Q 422.8 66.1 419.45 59.95 A 27.783 27.783 0 0 1 416.12 47.464 A 32.896 32.896 0 0 1 416.1 46.3 Q 416.1 38.8 419.6 32.55 Q 423.1 26.3 429.15 22.6 A 25.311 25.311 0 0 1 440.488 19 A 31.188 31.188 0 0 1 443 18.9 A 27.913 27.913 0 0 1 450.765 19.945 A 23.72 23.72 0 0 1 456.75 22.6 Q 462.7 26.3 466.05 32.55 A 28.54 28.54 0 0 1 469.397 45.833 A 33.322 33.322 0 0 1 469.4 46.3 A 26.803 26.803 0 0 1 469.344 48.007 A 30.696 30.696 0 0 1 469.3 48.6 A 35.093 35.093 0 0 1 469.094 50.457 A 40.045 40.045 0 0 1 469 51.1 Z M 521.7 28.6 L 511.3 37.1 Q 509.5 34.4 506.65 32.8 Q 503.8 31.2 500.3 31.2 Q 496 31.2 492.8 33.25 Q 489.6 35.3 487.85 38.7 A 15.953 15.953 0 0 0 486.115 45.438 A 18.767 18.767 0 0 0 486.1 46.2 Q 486.1 50.2 487.95 53.65 Q 489.8 57.1 493.05 59.15 A 13.295 13.295 0 0 0 498.769 61.102 A 16.714 16.714 0 0 0 500.6 61.2 A 14.461 14.461 0 0 0 503.677 60.889 A 10.529 10.529 0 0 0 507.2 59.45 Q 509.9 57.7 511.9 55 L 521.7 63.5 Q 518 68.2 512.55 70.85 A 25.1 25.1 0 0 1 506.331 72.879 Q 503.53 73.423 500.324 73.491 A 43.577 43.577 0 0 1 499.4 73.5 A 26.302 26.302 0 0 1 490.329 71.95 A 24.999 24.999 0 0 1 488.95 71.4 Q 484.1 69.3 480.4 65.55 Q 476.7 61.8 474.65 56.85 Q 472.6 51.9 472.6 46.2 A 28.01 28.01 0 0 1 474.203 36.643 A 25.955 25.955 0 0 1 476.15 32.45 Q 479.7 26.3 485.95 22.6 A 26.719 26.719 0 0 1 498.091 18.962 A 32.443 32.443 0 0 1 500.1 18.9 A 37.199 37.199 0 0 1 500.624 18.897 Q 507.407 18.897 512.8 21.4 A 23.513 23.513 0 0 1 518.771 25.312 A 20.91 20.91 0 0 1 521.7 28.6 Z M 266.1 72.2 L 252.1 72.2 L 252.1 2.2 L 275.7 2.2 A 40.489 40.489 0 0 1 283.137 2.841 Q 287.298 3.62 290.598 5.343 A 21.11 21.11 0 0 1 294.25 7.75 A 17.749 17.749 0 0 1 300.202 17.382 Q 300.95 20.323 300.997 23.83 A 35.286 35.286 0 0 1 301 24.3 Q 301 33.871 295.983 39.427 A 17.835 17.835 0 0 1 294.25 41.1 Q 287.5 46.8 275.7 46.8 L 266.1 46.8 L 266.1 72.2 Z M 554.1 72.2 L 546.7 72.2 A 24.998 24.998 0 0 1 542.137 71.811 Q 537.687 70.983 534.9 68.4 A 11.381 11.381 0 0 1 532.026 63.992 Q 530.8 60.749 530.8 56.1 L 530.8 31.7 L 523.5 31.7 L 523.5 20.2 L 530.8 20.2 L 530.8 9.7 L 544.3 8.3 L 544.3 20.2 L 555.3 20.2 L 555.3 31.7 L 544.3 31.7 L 544.3 55.4 Q 544.3 60.2 548.5 60.2 L 554.1 60.2 L 554.1 72.2 Z M 394.2 92.2 L 389.8 92.2 L 389.8 80.2 L 392.4 80.2 Q 396.6 80.2 396.6 75.4 L 396.6 20.2 L 410.1 20.2 L 410.1 76.1 A 27.871 27.871 0 0 1 409.776 80.51 Q 409.403 82.828 408.604 84.655 A 11.084 11.084 0 0 1 406 88.4 Q 402.523 91.623 396.457 92.113 A 28.062 28.062 0 0 1 394.2 92.2 Z M 113.5 73.5 Q 105.5 73.5 99.2 69.8 Q 92.9 66.1 89.35 59.95 A 26.714 26.714 0 0 1 85.803 46.768 A 31.426 31.426 0 0 1 85.8 46.3 Q 85.8 38.8 89.35 32.6 Q 92.9 26.4 99.2 22.7 A 27.028 27.028 0 0 1 111.042 19.091 A 32.976 32.976 0 0 1 113.5 19 A 30.254 30.254 0 0 1 121.584 20.045 A 25.64 25.64 0 0 1 127.85 22.7 Q 134.1 26.4 137.65 32.6 Q 141.2 38.8 141.2 46.3 A 27.313 27.313 0 0 1 139.119 56.994 A 26.278 26.278 0 0 1 137.65 59.95 Q 134.1 66.1 127.85 69.8 A 26.567 26.567 0 0 1 116.955 73.323 A 33.021 33.021 0 0 1 113.5 73.5 Z M 362.9 73.5 Q 354.9 73.5 348.6 69.8 Q 342.3 66.1 338.75 59.95 A 26.714 26.714 0 0 1 335.203 46.768 A 31.426 31.426 0 0 1 335.2 46.3 Q 335.2 38.8 338.75 32.6 Q 342.3 26.4 348.6 22.7 A 27.028 27.028 0 0 1 360.442 19.091 A 32.976 32.976 0 0 1 362.9 19 A 30.254 30.254 0 0 1 370.984 20.045 A 25.64 25.64 0 0 1 377.25 22.7 Q 383.5 26.4 387.05 32.6 Q 390.6 38.8 390.6 46.3 A 27.313 27.313 0 0 1 388.519 56.994 A 26.278 26.278 0 0 1 387.05 59.95 Q 383.5 66.1 377.25 69.8 A 26.567 26.567 0 0 1 366.355 73.323 A 33.021 33.021 0 0 1 362.9 73.5 Z M 160.7 72.2 L 147.2 72.2 L 147.2 20.2 L 160.3 20.2 L 160.3 30.1 A 16.812 16.812 0 0 1 161.873 25.856 A 12.963 12.963 0 0 1 165.6 21.55 Q 169.54 18.645 176.198 18.989 A 28.893 28.893 0 0 1 176.4 19 L 176.4 31.7 L 174.5 31.7 Q 168.7 31.7 164.7 35.4 A 12.167 12.167 0 0 0 160.999 42.255 A 17.846 17.846 0 0 0 160.7 45.6 L 160.7 72.2 Z M 319.5 72.2 L 306 72.2 L 306 20.2 L 319.1 20.2 L 319.1 30.1 A 16.812 16.812 0 0 1 320.673 25.856 A 12.963 12.963 0 0 1 324.4 21.55 Q 328.34 18.645 334.998 18.989 A 28.893 28.893 0 0 1 335.2 19 L 335.2 31.7 L 333.3 31.7 Q 327.5 31.7 323.5 35.4 A 12.167 12.167 0 0 0 319.799 42.255 A 17.846 17.846 0 0 0 319.5 45.6 L 319.5 72.2 Z M 113.5 61.2 Q 117.8 61.2 121 59.15 Q 124.2 57.1 125.95 53.7 Q 127.7 50.3 127.7 46.3 A 16.677 16.677 0 0 0 126.835 40.881 A 15.409 15.409 0 0 0 125.95 38.8 Q 124.2 35.4 121 33.35 Q 117.8 31.3 113.5 31.3 Q 109.2 31.3 106 33.35 Q 102.8 35.4 101.05 38.8 A 15.953 15.953 0 0 0 99.315 45.538 A 18.767 18.767 0 0 0 99.3 46.3 A 15.931 15.931 0 0 0 101.05 53.7 Q 102.8 57.1 106 59.15 A 12.935 12.935 0 0 0 111.419 61.072 A 16.469 16.469 0 0 0 113.5 61.2 Z M 362.9 61.2 Q 367.2 61.2 370.4 59.15 Q 373.6 57.1 375.35 53.7 Q 377.1 50.3 377.1 46.3 A 16.677 16.677 0 0 0 376.235 40.881 A 15.409 15.409 0 0 0 375.35 38.8 Q 373.6 35.4 370.4 33.35 Q 367.2 31.3 362.9 31.3 Q 358.6 31.3 355.4 33.35 Q 352.2 35.4 350.45 38.8 A 15.953 15.953 0 0 0 348.715 45.538 A 18.767 18.767 0 0 0 348.7 46.3 A 15.931 15.931 0 0 0 350.45 53.7 Q 352.2 57.1 355.4 59.15 A 12.935 12.935 0 0 0 360.819 61.072 A 16.469 16.469 0 0 0 362.9 61.2 Z M 266.1 14.7 L 266.1 34.2 L 274.9 34.2 Q 278.732 34.2 281.39 33.116 A 9.803 9.803 0 0 0 283.7 31.8 A 7.647 7.647 0 0 0 286.432 27.539 Q 286.771 26.235 286.798 24.668 A 15.795 15.795 0 0 0 286.8 24.4 Q 286.8 20.643 285.049 18.382 A 7.192 7.192 0 0 0 283.7 17.05 A 10.376 10.376 0 0 0 280.49 15.444 Q 279.037 14.991 277.279 14.814 A 23.78 23.78 0 0 0 274.9 14.7 L 266.1 14.7 Z M 190.4 41 L 216.1 41 Q 215 36.7 211.55 33.6 A 12.023 12.023 0 0 0 203.872 30.519 A 15.566 15.566 0 0 0 203.1 30.5 Q 198.3 30.5 194.9 33.4 A 13.621 13.621 0 0 0 190.626 40.135 A 16.985 16.985 0 0 0 190.4 41 Z M 430.1 41 L 455.8 41 Q 454.7 36.7 451.25 33.6 A 12.023 12.023 0 0 0 443.572 30.519 A 15.566 15.566 0 0 0 442.8 30.5 Q 438 30.5 434.6 33.4 A 13.621 13.621 0 0 0 430.326 40.135 A 16.985 16.985 0 0 0 430.1 41 Z M 399.907 15.157 A 8.101 8.101 0 0 0 403.4 15.9 A 10.281 10.281 0 0 0 403.886 15.889 A 7.763 7.763 0 0 0 409.2 13.6 Q 411.5 11.3 411.5 7.9 A 7.806 7.806 0 0 0 411.056 5.252 A 7.97 7.97 0 0 0 409.2 2.35 A 7.59 7.59 0 0 0 406.395 0.508 A 8.541 8.541 0 0 0 403.4 0 A 9.77 9.77 0 0 0 403.294 0.001 A 7.807 7.807 0 0 0 397.65 2.35 Q 395.3 4.7 395.3 7.9 A 9.208 9.208 0 0 0 395.301 8.003 A 7.695 7.695 0 0 0 397.65 13.55 A 8.004 8.004 0 0 0 399.907 15.157 Z" vector-effect="non-scaling-stroke"/></g></svg>